<svg viewBox="0 0 1400 900" xmlns="http://www.w3.org/2000/svg" font-family="'Courier New', monospace">
  <defs>
    <!-- Background gradient -->
    <linearGradient id="bg" x1="0%" y1="0%" x2="100%" y2="100%">
      <stop offset="0%" style="stop-color:#0a0e1a"/>
      <stop offset="100%" style="stop-color:#0d1528"/>
    </linearGradient>

    <!-- Card gradients -->
    <linearGradient id="gatewayGrad" x1="0%" y1="0%" x2="100%" y2="100%">
      <stop offset="0%" style="stop-color:#1a2744"/>
      <stop offset="100%" style="stop-color:#0f1e3a"/>
    </linearGradient>
    <linearGradient id="orchestratorGrad" x1="0%" y1="0%" x2="100%" y2="100%">
      <stop offset="0%" style="stop-color:#1a1060"/>
      <stop offset="100%" style="stop-color:#0d0a40"/>
    </linearGradient>
    <linearGradient id="kafkaGrad" x1="0%" y1="0%" x2="100%" y2="100%">
      <stop offset="0%" style="stop-color:#1a0a2e"/>
      <stop offset="100%" style="stop-color:#110820"/>
    </linearGradient>
    <linearGradient id="serviceGrad" x1="0%" y1="0%" x2="100%" y2="100%">
      <stop offset="0%" style="stop-color:#0a1f2e"/>
      <stop offset="100%" style="stop-color:#071828"/>
    </linearGradient>
    <linearGradient id="observGrad" x1="0%" y1="0%" x2="100%" y2="100%">
      <stop offset="0%" style="stop-color:#1a0f0a"/>
      <stop offset="100%" style="stop-color:#120a06"/>
    </linearGradient>

    <!-- Glow filters -->
    <filter id="glowBlue" x="-20%" y="-20%" width="140%" height="140%">
      <feGaussianBlur stdDeviation="3" result="blur"/>
      <feMerge><feMergeNode in="blur"/><feMergeNode in="SourceGraphic"/></feMerge>
    </filter>
    <filter id="glowPurple" x="-20%" y="-20%" width="140%" height="140%">
      <feGaussianBlur stdDeviation="4" result="blur"/>
      <feMerge><feMergeNode in="blur"/><feMergeNode in="SourceGraphic"/></feMerge>
    </filter>
    <filter id="glowOrange" x="-20%" y="-20%" width="140%" height="140%">
      <feGaussianBlur stdDeviation="3" result="blur"/>
      <feMerge><feMergeNode in="blur"/><feMergeNode in="SourceGraphic"/></feMerge>
    </filter>
    <filter id="softGlow">
      <feGaussianBlur stdDeviation="8" result="blur"/>
      <feMerge><feMergeNode in="blur"/><feMergeNode in="SourceGraphic"/></feMerge>
    </filter>

    <!-- Arrow markers -->
    <marker id="arrowBlue" markerWidth="8" markerHeight="6" refX="8" refY="3" orient="auto">
      <polygon points="0 0, 8 3, 0 6" fill="#3b82f6"/>
    </marker>
    <marker id="arrowPurple" markerWidth="8" markerHeight="6" refX="8" refY="3" orient="auto">
      <polygon points="0 0, 8 3, 0 6" fill="#8b5cf6"/>
    </marker>
    <marker id="arrowOrange" markerWidth="8" markerHeight="6" refX="8" refY="3" orient="auto">
      <polygon points="0 0, 8 3, 0 6" fill="#f97316"/>
    </marker>
    <marker id="arrowGreen" markerWidth="8" markerHeight="6" refX="8" refY="3" orient="auto">
      <polygon points="0 0, 8 3, 0 6" fill="#22c55e"/>
    </marker>
    <marker id="arrowRed" markerWidth="8" markerHeight="6" refX="8" refY="3" orient="auto">
      <polygon points="0 0, 8 3, 0 6" fill="#ef4444"/>
    </marker>

    <!-- Grid pattern -->
    <pattern id="grid" width="40" height="40" patternUnits="userSpaceOnUse">
      <path d="M 40 0 L 0 0 0 40" fill="none" stroke="#1a2744" stroke-width="0.5" opacity="0.4"/>
    </pattern>
  </defs>

  <!-- Background -->
  <rect width="1400" height="900" fill="url(#bg)"/>
  <rect width="1400" height="900" fill="url(#grid)"/>

  <!-- Subtle glow orbs in background -->
  <ellipse cx="200" cy="200" rx="250" ry="200" fill="#3b82f6" opacity="0.03"/>
  <ellipse cx="1200" cy="700" rx="300" ry="200" fill="#8b5cf6" opacity="0.04"/>
  <ellipse cx="700" cy="450" rx="350" ry="250" fill="#6366f1" opacity="0.03"/>

  <!-- ═══════════════════════════════════════════════════ -->
  <!-- TITLE -->
  <!-- ═══════════════════════════════════════════════════ -->
  <text x="700" y="40" text-anchor="middle" fill="#e2e8f0" font-size="22" font-weight="bold" letter-spacing="4">SAGA ORCHESTRATION PATTERN</text>
  <text x="700" y="62" text-anchor="middle" fill="#475569" font-size="11" letter-spacing="6">DISTRIBUTED TRANSACTION ARCHITECTURE</text>
  <line x1="300" y1="72" x2="1100" y2="72" stroke="#1e3a5f" stroke-width="1"/>

  <!-- ═══════════════════════════════════════════════════ -->
  <!-- CLIENT -->
  <!-- ═══════════════════════════════════════════════════ -->
  <rect x="580" y="85" width="240" height="52" rx="6" fill="#0f172a" stroke="#3b82f6" stroke-width="1.5"/>
  <text x="700" y="107" text-anchor="middle" fill="#93c5fd" font-size="10" letter-spacing="2">CLIENT</text>
  <text x="700" y="124" text-anchor="middle" fill="#475569" font-size="9">Web · Mobile · Third-Party API</text>

  <!-- Arrow: Client → Gateway -->
  <line x1="700" y1="137" x2="700" y2="155" stroke="#3b82f6" stroke-width="1.5" stroke-dasharray="4,3" marker-end="url(#arrowBlue)"/>
  <text x="712" y="148" fill="#3b82f6" font-size="8">HTTPS</text>

  <!-- ═══════════════════════════════════════════════════ -->
  <!-- API GATEWAY -->
  <!-- ═══════════════════════════════════════════════════ -->
  <rect x="400" y="157" width="600" height="58" rx="6" fill="url(#gatewayGrad)" stroke="#3b82f6" stroke-width="1.5" filter="url(#glowBlue)"/>
  <text x="700" y="179" text-anchor="middle" fill="#93c5fd" font-size="11" font-weight="bold" letter-spacing="3">API GATEWAY</text>
  <text x="700" y="196" text-anchor="middle" fill="#475569" font-size="9" letter-spacing="1">Kong  ·  Rate Limiting  ·  JWT Auth  ·  Request Routing  ·  TLS Termination</text>
  <!-- Badge -->
  <rect x="950" y="161" width="40" height="16" rx="3" fill="#1e3a5f"/>
  <text x="970" y="173" text-anchor="middle" fill="#3b82f6" font-size="8">Kong</text>

  <!-- Arrow: Gateway → Orchestrator -->
  <line x1="700" y1="215" x2="700" y2="240" stroke="#8b5cf6" stroke-width="2" marker-end="url(#arrowPurple)"/>

  <!-- ═══════════════════════════════════════════════════ -->
  <!-- SAGA ORCHESTRATOR -->
  <!-- ═══════════════════════════════════════════════════ -->
  <rect x="280" y="242" width="840" height="160" rx="8" fill="url(#orchestratorGrad)" stroke="#8b5cf6" stroke-width="2" filter="url(#glowPurple)"/>

  <!-- Label -->
  <text x="700" y="268" text-anchor="middle" fill="#c4b5fd" font-size="13" font-weight="bold" letter-spacing="3">SAGA ORCHESTRATOR</text>
  <line x1="310" y1="275" x2="1090" y2="275" stroke="#3730a3" stroke-width="0.8"/>

  <!-- Internal boxes -->
  <!-- State Machine -->
  <rect x="300" y="283" width="190" height="70" rx="5" fill="#13104a" stroke="#6366f1" stroke-width="1"/>
  <text x="395" y="301" text-anchor="middle" fill="#a5b4fc" font-size="9" font-weight="bold" letter-spacing="1">STATE MACHINE</text>
  <text x="395" y="316" text-anchor="middle" fill="#4c4a7a" font-size="8">STARTED → RUNNING</text>
  <text x="395" y="328" text-anchor="middle" fill="#4c4a7a" font-size="8">→ COMPLETED | FAILED</text>
  <text x="395" y="340" text-anchor="middle" fill="#4c4a7a" font-size="8">→ COMPENSATING</text>

  <!-- Step Runner -->
  <rect x="510" y="283" width="190" height="70" rx="5" fill="#13104a" stroke="#6366f1" stroke-width="1"/>
  <text x="605" y="301" text-anchor="middle" fill="#a5b4fc" font-size="9" font-weight="bold" letter-spacing="1">STEP EXECUTOR</text>
  <text x="605" y="316" text-anchor="middle" fill="#4c4a7a" font-size="8">Async Command Dispatch</text>
  <text x="605" y="328" text-anchor="middle" fill="#4c4a7a" font-size="8">Idempotency Keys</text>
  <text x="605" y="340" text-anchor="middle" fill="#4c4a7a" font-size="8">Retry + Timeout</text>

  <!-- Compensation Manager -->
  <rect x="720" y="283" width="190" height="70" rx="5" fill="#13104a" stroke="#ef4444" stroke-width="1"/>
  <text x="815" y="301" text-anchor="middle" fill="#fca5a5" font-size="9" font-weight="bold" letter-spacing="1">COMPENSATION MGR</text>
  <text x="815" y="316" text-anchor="middle" fill="#4c4a7a" font-size="8">Reverse-Order Rollback</text>
  <text x="815" y="328" text-anchor="middle" fill="#4c4a7a" font-size="8">Compensation Steps</text>
  <text x="815" y="340" text-anchor="middle" fill="#4c4a7a" font-size="8">PagerDuty Alerting</text>

  <!-- Saga Repository -->
  <rect x="930" y="283" width="170" height="70" rx="5" fill="#13104a" stroke="#6366f1" stroke-width="1"/>
  <text x="1015" y="301" text-anchor="middle" fill="#a5b4fc" font-size="9" font-weight="bold" letter-spacing="1">SAGA REPOSITORY</text>
  <text x="1015" y="316" text-anchor="middle" fill="#4c4a7a" font-size="8">State Persistence</text>
  <text x="1015" y="328" text-anchor="middle" fill="#4c4a7a" font-size="8">Redis + Postgres</text>
  <text x="1015" y="340" text-anchor="middle" fill="#4c4a7a" font-size="8">Dist. Locking</text>

  <!-- State store label inside orchestrator -->
  <text x="700" y="372" text-anchor="middle" fill="#4c4a7a" font-size="8" letter-spacing="2">STATE STORE: REDIS (distributed locks + saga state)</text>

  <!-- Redis icon -->
  <circle cx="680" cy="388" r="6" fill="none" stroke="#ef4444" stroke-width="1.2"/>
  <text x="680" y="392" text-anchor="middle" fill="#ef4444" font-size="7">R</text>
  <text x="695" y="392" fill="#4c4a7a" font-size="8">redis:6379</text>

  <!-- ═══════════════════════════════════════════════════ -->
  <!-- ARROWS: Orchestrator → Services -->
  <!-- ═══════════════════════════════════════════════════ -->

  <!-- Down arrows from orchestrator to 4 services -->
  <line x1="395" y1="402" x2="200" y2="490" stroke="#3b82f6" stroke-width="1.5" marker-end="url(#arrowBlue)"/>
  <line x1="560" y1="402" x2="530" y2="490" stroke="#3b82f6" stroke-width="1.5" marker-end="url(#arrowBlue)"/>
  <line x1="840" y1="402" x2="870" y2="490" stroke="#3b82f6" stroke-width="1.5" marker-end="url(#arrowBlue)"/>
  <line x1="1000" y1="402" x2="1200" y2="490" stroke="#3b82f6" stroke-width="1.5" marker-end="url(#arrowBlue)"/>

  <!-- Command labels -->
  <text x="270" y="455" fill="#3b82f6" font-size="7" transform="rotate(-25,270,455)">RESERVE_ORDER</text>
  <text x="520" y="458" fill="#3b82f6" font-size="7">PROCESS_PAYMENT</text>
  <text x="830" y="458" fill="#3b82f6" font-size="7">RESERVE_INVENTORY</text>
  <text x="1050" y="455" fill="#3b82f6" font-size="7" transform="rotate(25,1050,455)">SEND_NOTIFICATION</text>

  <!-- ═══════════════════════════════════════════════════ -->
  <!-- 4 SERVICES -->
  <!-- ═══════════════════════════════════════════════════ -->

  <!-- Order Service -->
  <rect x="60" y="490" width="280" height="130" rx="7" fill="url(#serviceGrad)" stroke="#3b82f6" stroke-width="1.5"/>
  <rect x="60" y="490" width="280" height="28" rx="7" fill="#0f2544"/>
  <rect x="60" y="504" width="280" height="14" fill="#0f2544"/>
  <text x="200" y="509" text-anchor="middle" fill="#93c5fd" font-size="10" font-weight="bold" letter-spacing="2">ORDER SERVICE</text>
  <!-- icon -->
  <rect x="72" y="496" width="12" height="12" rx="2" fill="#3b82f6" opacity="0.6"/>

  <text x="200" y="538" text-anchor="middle" fill="#64748b" font-size="8" letter-spacing="1">DOMAIN</text>
  <rect x="80" y="544" width="240" height="38" rx="3" fill="#071020" stroke="#1e3a5f" stroke-width="1"/>
  <text x="200" y="558" text-anchor="middle" fill="#475569" font-size="8">Order Aggregate · OrderId VO</text>
  <text x="200" y="570" text-anchor="middle" fill="#475569" font-size="8">OrderStatus · OrderItems</text>
  <text x="200" y="582" text-anchor="middle" fill="#475569" font-size="8">OrderCreated / Cancelled Events</text>

  <rect x="80" y="590" width="115" height="22" rx="3" fill="#071020" stroke="#1e3a5f" stroke-width="1"/>
  <text x="137" y="605" text-anchor="middle" fill="#334155" font-size="8">🗄 PostgreSQL</text>

  <rect x="205" y="590" width="115" height="22" rx="3" fill="#071020" stroke="#1e3a5f" stroke-width="1"/>
  <text x="262" y="605" text-anchor="middle" fill="#334155" font-size="8">📤 Outbox Table</text>

  <!-- Payment Service -->
  <rect x="390" y="490" width="280" height="130" rx="7" fill="url(#serviceGrad)" stroke="#22c55e" stroke-width="1.5"/>
  <rect x="390" y="490" width="280" height="28" rx="7" fill="#0a2018"/>
  <rect x="390" y="504" width="280" height="14" fill="#0a2018"/>
  <text x="530" y="509" text-anchor="middle" fill="#86efac" font-size="10" font-weight="bold" letter-spacing="2">PAYMENT SERVICE</text>
  <rect x="402" y="496" width="12" height="12" rx="2" fill="#22c55e" opacity="0.6"/>

  <text x="530" y="538" text-anchor="middle" fill="#64748b" font-size="8" letter-spacing="1">DOMAIN</text>
  <rect x="410" y="544" width="240" height="38" rx="3" fill="#071020" stroke="#14532d" stroke-width="1"/>
  <text x="530" y="558" text-anchor="middle" fill="#475569" font-size="8">Payment Aggregate · Ledger</text>
  <text x="530" y="570" text-anchor="middle" fill="#475569" font-size="8">PaymentId VO · Money VO</text>
  <text x="530" y="582" text-anchor="middle" fill="#475569" font-size="8">PaymentProcessed / Failed Events</text>

  <rect x="410" y="590" width="115" height="22" rx="3" fill="#071020" stroke="#14532d" stroke-width="1"/>
  <text x="467" y="605" text-anchor="middle" fill="#334155" font-size="8">🗄 PostgreSQL</text>

  <rect x="535" y="590" width="115" height="22" rx="3" fill="#071020" stroke="#14532d" stroke-width="1"/>
  <text x="592" y="605" text-anchor="middle" fill="#334155" font-size="8">💳 Stripe API</text>

  <!-- Inventory Service -->
  <rect x="720" y="490" width="280" height="130" rx="7" fill="url(#serviceGrad)" stroke="#f59e0b" stroke-width="1.5"/>
  <rect x="720" y="490" width="280" height="28" rx="7" fill="#1c1205"/>
  <rect x="720" y="504" width="280" height="14" fill="#1c1205"/>
  <text x="860" y="509" text-anchor="middle" fill="#fcd34d" font-size="10" font-weight="bold" letter-spacing="2">INVENTORY SERVICE</text>
  <rect x="732" y="496" width="12" height="12" rx="2" fill="#f59e0b" opacity="0.6"/>

  <text x="860" y="538" text-anchor="middle" fill="#64748b" font-size="8" letter-spacing="1">DOMAIN</text>
  <rect x="740" y="544" width="240" height="38" rx="3" fill="#071020" stroke="#451a03" stroke-width="1"/>
  <text x="860" y="558" text-anchor="middle" fill="#475569" font-size="8">Stock Aggregate · ProductId VO</text>
  <text x="860" y="570" text-anchor="middle" fill="#475569" font-size="8">Quantity VO · Reservation</text>
  <text x="860" y="582" text-anchor="middle" fill="#475569" font-size="8">StockReserved / OutOfStock Events</text>

  <rect x="740" y="590" width="115" height="22" rx="3" fill="#071020" stroke="#451a03" stroke-width="1"/>
  <text x="797" y="605" text-anchor="middle" fill="#334155" font-size="8">🗄 PostgreSQL</text>

  <rect x="865" y="590" width="115" height="22" rx="3" fill="#071020" stroke="#451a03" stroke-width="1"/>
  <text x="922" y="605" text-anchor="middle" fill="#334155" font-size="8">📦 Stock Cache</text>

  <!-- Notification Service -->
  <rect x="1050" y="490" width="280" height="130" rx="7" fill="url(#serviceGrad)" stroke="#ec4899" stroke-width="1.5"/>
  <rect x="1050" y="490" width="280" height="28" rx="7" fill="#1c0514"/>
  <rect x="1050" y="504" width="280" height="14" fill="#1c0514"/>
  <text x="1190" y="509" text-anchor="middle" fill="#f9a8d4" font-size="10" font-weight="bold" letter-spacing="2">NOTIFICATION SERVICE</text>
  <rect x="1062" y="496" width="12" height="12" rx="2" fill="#ec4899" opacity="0.6"/>

  <text x="1190" y="538" text-anchor="middle" fill="#64748b" font-size="8" letter-spacing="1">CHANNELS</text>
  <rect x="1070" y="544" width="240" height="38" rx="3" fill="#071020" stroke="#500724" stroke-width="1"/>
  <text x="1190" y="558" text-anchor="middle" fill="#475569" font-size="8">Email · SMS · Push Notification</text>
  <text x="1190" y="570" text-anchor="middle" fill="#475569" font-size="8">SendGrid · Twilio · FCM</text>
  <text x="1190" y="582" text-anchor="middle" fill="#475569" font-size="8">Template Engine · Multi-lang</text>

  <rect x="1070" y="590" width="115" height="22" rx="3" fill="#071020" stroke="#500724" stroke-width="1"/>
  <text x="1127" y="605" text-anchor="middle" fill="#334155" font-size="8">📧 SendGrid</text>

  <rect x="1195" y="590" width="115" height="22" rx="3" fill="#071020" stroke="#500724" stroke-width="1"/>
  <text x="1252" y="605" text-anchor="middle" fill="#334155" font-size="8">📱 Twilio</text>

  <!-- ═══════════════════════════════════════════════════ -->
  <!-- VERTICAL CONNECTORS: Services → Kafka -->
  <!-- ═══════════════════════════════════════════════════ -->
  <line x1="200" y1="620" x2="200" y2="668" stroke="#8b5cf6" stroke-width="1.5" stroke-dasharray="4,3" marker-end="url(#arrowPurple)"/>
  <line x1="530" y1="620" x2="530" y2="668" stroke="#8b5cf6" stroke-width="1.5" stroke-dasharray="4,3" marker-end="url(#arrowPurple)"/>
  <line x1="860" y1="620" x2="860" y2="668" stroke="#8b5cf6" stroke-width="1.5" stroke-dasharray="4,3" marker-end="url(#arrowPurple)"/>
  <line x1="1190" y1="620" x2="1190" y2="668" stroke="#8b5cf6" stroke-width="1.5" stroke-dasharray="4,3" marker-end="url(#arrowPurple)"/>

  <!-- ═══════════════════════════════════════════════════ -->
  <!-- KAFKA -->
  <!-- ═══════════════════════════════════════════════════ -->
  <rect x="60" y="668" width="1270" height="110" rx="8" fill="url(#kafkaGrad)" stroke="#8b5cf6" stroke-width="2" filter="url(#glowPurple)"/>
  <text x="700" y="692" text-anchor="middle" fill="#c4b5fd" font-size="13" font-weight="bold" letter-spacing="4">APACHE KAFKA</text>
  <text x="700" y="708" text-anchor="middle" fill="#4c3a7a" font-size="9" letter-spacing="2">EVENT STREAMING PLATFORM  ·  3 BROKERS  ·  REPLICATION FACTOR 3</text>

  <!-- Topics -->
  <rect x="90" y="718" width="170" height="48" rx="4" fill="#0d0820" stroke="#6d28d9" stroke-width="1"/>
  <text x="175" y="735" text-anchor="middle" fill="#7c3aed" font-size="8" letter-spacing="1">TOPIC</text>
  <text x="175" y="748" text-anchor="middle" fill="#a78bfa" font-size="9" font-weight="bold">saga-commands</text>
  <text x="175" y="761" text-anchor="middle" fill="#4c3a7a" font-size="8">Orchestrator → Services</text>

  <rect x="285" y="718" width="170" height="48" rx="4" fill="#0d0820" stroke="#6d28d9" stroke-width="1"/>
  <text x="370" y="735" text-anchor="middle" fill="#7c3aed" font-size="8" letter-spacing="1">TOPIC</text>
  <text x="370" y="748" text-anchor="middle" fill="#a78bfa" font-size="9" font-weight="bold">saga-replies</text>
  <text x="370" y="761" text-anchor="middle" fill="#4c3a7a" font-size="8">Services → Orchestrator</text>

  <rect x="480" y="718" width="170" height="48" rx="4" fill="#0d0820" stroke="#6d28d9" stroke-width="1"/>
  <text x="565" y="735" text-anchor="middle" fill="#7c3aed" font-size="8" letter-spacing="1">TOPIC</text>
  <text x="565" y="748" text-anchor="middle" fill="#a78bfa" font-size="9" font-weight="bold">saga-events</text>
  <text x="565" y="761" text-anchor="middle" fill="#4c3a7a" font-size="8">SAGA_COMPLETED / FAILED</text>

  <rect x="675" y="718" width="170" height="48" rx="4" fill="#0d0820" stroke="#6d28d9" stroke-width="1"/>
  <text x="760" y="735" text-anchor="middle" fill="#7c3aed" font-size="8" letter-spacing="1">TOPIC</text>
  <text x="760" y="748" text-anchor="middle" fill="#a78bfa" font-size="9" font-weight="bold">domain-events</text>
  <text x="760" y="761" text-anchor="middle" fill="#4c3a7a" font-size="8">Outbox Published Events</text>

  <rect x="870" y="718" width="170" height="48" rx="4" fill="#0d0820" stroke="#6d28d9" stroke-width="1"/>
  <text x="955" y="735" text-anchor="middle" fill="#7c3aed" font-size="8" letter-spacing="1">TOPIC</text>
  <text x="955" y="748" text-anchor="middle" fill="#a78bfa" font-size="9" font-weight="bold">compensation</text>
  <text x="955" y="761" text-anchor="middle" fill="#4c3a7a" font-size="8">Rollback Commands</text>

  <rect x="1065" y="718" width="170" height="48" rx="4" fill="#0d0820" stroke="#ef4444" stroke-width="1"/>
  <text x="1150" y="735" text-anchor="middle" fill="#dc2626" font-size="8" letter-spacing="1">DLQ</text>
  <text x="1150" y="748" text-anchor="middle" fill="#fca5a5" font-size="9" font-weight="bold">dead-letter</text>
  <text x="1150" y="761" text-anchor="middle" fill="#7f1d1d" font-size="8">Unprocessable Messages</text>

  <!-- ═══════════════════════════════════════════════════ -->
  <!-- OBSERVABILITY SECTION -->
  <!-- ═══════════════════════════════════════════════════ -->
  <rect x="60" y="798" width="1270" height="82" rx="7" fill="url(#observGrad)" stroke="#f97316" stroke-width="1.5"/>
  <text x="700" y="820" text-anchor="middle" fill="#fb923c" font-size="11" font-weight="bold" letter-spacing="3">OBSERVABILITY STACK</text>

  <!-- Jaeger -->
  <rect x="90" y="828" width="180" height="40" rx="4" fill="#120b04" stroke="#f97316" stroke-width="1"/>
  <text x="180" y="844" text-anchor="middle" fill="#f97316" font-size="9" font-weight="bold">🔍 Jaeger</text>
  <text x="180" y="858" text-anchor="middle" fill="#78350f" font-size="8">Distributed Tracing</text>
  <text x="180" y="868" text-anchor="middle" fill="#44220a" font-size="7">port :16686</text>

  <!-- Prometheus -->
  <rect x="290" y="828" width="180" height="40" rx="4" fill="#120b04" stroke="#f97316" stroke-width="1"/>
  <text x="380" y="844" text-anchor="middle" fill="#f97316" font-size="9" font-weight="bold">📊 Prometheus</text>
  <text x="380" y="858" text-anchor="middle" fill="#78350f" font-size="8">Metrics Collection</text>
  <text x="380" y="868" text-anchor="middle" fill="#44220a" font-size="7">port :9090</text>

  <!-- Grafana -->
  <rect x="490" y="828" width="180" height="40" rx="4" fill="#120b04" stroke="#f97316" stroke-width="1"/>
  <text x="580" y="844" text-anchor="middle" fill="#f97316" font-size="9" font-weight="bold">📈 Grafana</text>
  <text x="580" y="858" text-anchor="middle" fill="#78350f" font-size="8">Dashboards &amp; Alerts</text>
  <text x="580" y="868" text-anchor="middle" fill="#44220a" font-size="7">port :3001</text>

  <!-- Kafka UI -->
  <rect x="690" y="828" width="180" height="40" rx="4" fill="#120b04" stroke="#f97316" stroke-width="1"/>
  <text x="780" y="844" text-anchor="middle" fill="#f97316" font-size="9" font-weight="bold">🖥 Kafka UI</text>
  <text x="780" y="858" text-anchor="middle" fill="#78350f" font-size="8">Message Inspection</text>
  <text x="780" y="868" text-anchor="middle" fill="#44220a" font-size="7">port :8090</text>

  <!-- Redis Insight -->
  <rect x="890" y="828" width="180" height="40" rx="4" fill="#120b04" stroke="#f97316" stroke-width="1"/>
  <text x="980" y="844" text-anchor="middle" fill="#f97316" font-size="9" font-weight="bold">🔴 Redis Insight</text>
  <text x="980" y="858" text-anchor="middle" fill="#78350f" font-size="8">Saga State Inspector</text>
  <text x="980" y="868" text-anchor="middle" fill="#44220a" font-size="7">port :6379</text>

  <!-- PagerDuty -->
  <rect x="1090" y="828" width="220" height="40" rx="4" fill="#120b04" stroke="#ef4444" stroke-width="1"/>
  <text x="1200" y="844" text-anchor="middle" fill="#ef4444" font-size="9" font-weight="bold">🚨 PagerDuty / OpsGenie</text>
  <text x="1200" y="858" text-anchor="middle" fill="#7f1d1d" font-size="8">On-Call Alerting</text>
  <text x="1200" y="868" text-anchor="middle" fill="#44220a" font-size="7">Compensation Failures</text>

  <!-- ═══════════════════════════════════════════════════ -->
  <!-- SAGA FLOW LEGEND (right side) -->
  <!-- ═══════════════════════════════════════════════════ -->
  <!-- Legend removed to keep it clean — flow is self-evident -->

  <!-- ═══════════════════════════════════════════════════ -->
  <!-- LEGEND BOTTOM -->
  <!-- ═══════════════════════════════════════════════════ -->
  <line x1="60" y1="888" x2="1340" y2="888" stroke="#1e293b" stroke-width="0.8"/>
  <circle cx="80" cy="895" r="4" fill="none" stroke="#3b82f6" stroke-width="1.5"/>
  <text x="90" y="898" fill="#3b82f6" font-size="8">Command / Step</text>
  <circle cx="200" cy="895" r="4" fill="none" stroke="#8b5cf6" stroke-width="1.5"/>
  <text x="210" y="898" fill="#8b5cf6" font-size="8">Event / Reply</text>
  <circle cx="310" cy="895" r="4" fill="none" stroke="#ef4444" stroke-width="1.5"/>
  <text x="320" y="898" fill="#ef4444" font-size="8">Compensation</text>
  <circle cx="430" cy="895" r="4" fill="none" stroke="#f97316" stroke-width="1.5"/>
  <text x="440" y="898" fill="#f97316" font-size="8">Observability</text>

  <text x="1340" y="898" text-anchor="end" fill="#1e3a5f" font-size="8">github.com/yourname/saga-pattern-architecture</text>
</svg>
